<?xml version="1.0" standalone="no"?>
<!DOCTYPE svg PUBLIC "-//W3C//DTD SVG 20010904//EN"
 "http://www.w3.org/TR/2001/REC-SVG-20010904/DTD/svg10.dtd">
<svg version="1.0" xmlns="http://www.w3.org/2000/svg"
 width="270.000000pt" height="270.000000pt" viewBox="0 0 270.000000 270.000000"
 preserveAspectRatio="xMidYMid meet">
<metadata>
Created by potrace 1.11, written by Peter Selinger 2001-2013
</metadata>
<g transform="translate(0.000000,270.000000) scale(0.100000,-0.100000)"
fill="#000000" stroke="none">
<path d="M2600 2261 c-8 -6 -17 -8 -20 -6 -4 2 -35 0 -71 -5 -35 -5 -102 -12
-149 -15 -47 -4 -105 -9 -130 -11 -25 -2 -76 -6 -114 -9 -37 -3 -80 -7 -95 -9
-14 -3 -53 -8 -86 -11 -33 -4 -71 -8 -85 -10 -14 -2 -45 -7 -70 -10 -70 -10
-167 -25 -250 -41 -19 -4 -42 -7 -50 -9 -8 -1 -28 -5 -45 -8 -16 -4 -40 -10
-52 -12 -13 -3 -33 -7 -45 -10 -56 -12 -157 -48 -203 -72 -101 -53 -215 -150
-269 -230 -29 -42 -25 -57 32 -107 103 -90 227 -234 272 -316 13 -25 34 -74
45 -110 12 -36 27 -65 33 -65 7 0 111 97 231 215 121 118 234 227 253 241 34
26 305 199 313 199 2 0 -83 -87 -188 -192 -250 -250 -323 -333 -469 -527 -48
-64 -91 -120 -95 -126 -10 -12 -121 -186 -152 -238 -36 -59 -116 -228 -131
-275 -16 -50 -10 -58 44 -66 21 -4 41 -8 45 -10 3 -2 35 -7 71 -11 286 -29
498 17 685 150 62 44 162 144 205 205 13 19 27 37 30 40 12 10 111 189 144
262 53 116 91 235 150 473 60 239 88 336 134 460 29 78 82 202 102 237 19 34
10 47 -20 29z"/>
<path d="M440 2000 c-28 -141 -89 -310 -190 -535 -35 -78 -77 -232 -87 -322
-23 -209 28 -362 165 -492 55 -52 194 -141 219 -141 26 0 56 109 70 255 13
133 4 558 -12 585 -2 3 -6 30 -9 60 -3 31 -10 77 -15 103 -4 26 -5 47 -2 47 5
0 41 -96 56 -150 1 -3 4 -12 8 -20 24 -60 96 -334 113 -430 4 -25 8 -47 9 -50
2 -9 19 -155 21 -185 1 -16 2 -67 3 -113 l1 -83 32 17 c48 25 169 150 216 223
41 63 79 150 90 206 10 51 6 168 -7 210 -13 41 -50 122 -64 140 -4 6 -19 26
-33 45 -13 19 -114 125 -223 235 -178 180 -274 285 -338 371 -12 16 -22 27
-23 24z"/>
</g>
</svg>
